<svg width="47" height="46" viewBox="0 0 47 46" fill="none" xmlns="http://www.w3.org/2000/svg">
<path d="M1.078 0.382324L19.1884 15.1367V44.6531H28.9202C32.8294 44.7072 36.6035 43.2242 39.4302 40.5233C42.2569 37.8225 43.9101 34.1198 44.0339 30.2122C44.1034 26.5156 42.7767 22.9287 40.3186 20.167C38.945 18.7012 37.2882 17.5294 35.4485 16.7226C33.6089 15.9158 31.6246 15.4907 29.6159 15.4731L46.0521 0.382324H35.6553L23.5842 10.1065L12.1782 0.382324H1.078Z" fill="white"/>
<path d="M26 23.5442V36.1252C26.8586 36.6482 27.8177 36.9454 28.8007 36.9932C29.7837 37.0409 30.7633 36.8378 31.6613 36.4002C32.6096 35.8805 33.4159 35.0992 33.9996 34.1342C34.5832 33.1692 34.9238 32.0545 34.9873 30.9015C35.072 29.3663 34.7321 27.8387 34.0113 26.5156C33.2906 25.1925 32.2221 24.1346 30.9435 23.4782C29.3474 22.8186 27.5807 22.8421 26 23.5442Z" fill="#1A171C"/>
</svg>
