<svg width="230" height="47" viewBox="0 0 230 47" fill="none" xmlns="http://www.w3.org/2000/svg">
<path d="M54.6179 13.4318H59.7848L64.7599 22.8281H64.973L69.9482 13.4318H75.1151L67.157 27.5369V35.25H62.576V27.5369L54.6179 13.4318ZM81.5151 35.5696C79.8603 35.5696 78.4292 35.218 77.2218 34.5149C76.0215 33.8047 75.0946 32.8175 74.4412 31.5533C73.7878 30.282 73.4611 28.8082 73.4611 27.1321C73.4611 25.4418 73.7878 23.9645 74.4412 22.7003C75.0946 21.429 76.0215 20.4418 77.2218 19.7386C78.4292 19.0284 79.8603 18.6733 81.5151 18.6733C83.1699 18.6733 84.5975 19.0284 85.7978 19.7386C87.0051 20.4418 87.9355 21.429 88.589 22.7003C89.2424 23.9645 89.5691 25.4418 89.5691 27.1321C89.5691 28.8082 89.2424 30.282 88.589 31.5533C87.9355 32.8175 87.0051 33.8047 85.7978 34.5149C84.5975 35.218 83.1699 35.5696 81.5151 35.5696ZM81.5364 32.054C82.2892 32.054 82.9178 31.8409 83.4221 31.4148C83.9263 30.9815 84.3063 30.392 84.562 29.6463C84.8248 28.9006 84.9561 28.0518 84.9561 27.1001C84.9561 26.1484 84.8248 25.2997 84.562 24.554C84.3063 23.8082 83.9263 23.2187 83.4221 22.7855C82.9178 22.3523 82.2892 22.1357 81.5364 22.1357C80.7765 22.1357 80.1373 22.3523 79.6188 22.7855C79.1074 23.2187 78.7203 23.8082 78.4576 24.554C78.2019 25.2997 78.074 26.1484 78.074 27.1001C78.074 28.0518 78.2019 28.9006 78.4576 29.6463C78.7203 30.392 79.1074 30.9815 79.6188 31.4148C80.1373 31.8409 80.7765 32.054 81.5364 32.054ZM103.014 28.2827V18.8864H107.552V35.25H103.195V32.2777H103.024C102.655 33.2365 102.041 34.0071 101.181 34.5895C100.329 35.1719 99.2885 35.4631 98.0598 35.4631C96.9661 35.4631 96.0037 35.2145 95.1728 34.7173C94.3418 34.2202 93.6919 33.5135 93.2232 32.5973C92.7615 31.6811 92.5272 30.5838 92.5201 29.3054V18.8864H97.0584V28.4957C97.0655 29.4616 97.3248 30.2251 97.8361 30.7862C98.3475 31.3473 99.0328 31.6278 99.8922 31.6278C100.439 31.6278 100.95 31.5036 101.426 31.255C101.902 30.9993 102.286 30.6229 102.577 30.1257C102.875 29.6286 103.021 29.0142 103.014 28.2827ZM111.182 35.25V18.8864H115.582V21.7415H115.752C116.051 20.7259 116.551 19.9588 117.255 19.4403C117.958 18.9148 118.767 18.652 119.684 18.652C119.911 18.652 120.156 18.6662 120.419 18.6946C120.681 18.723 120.912 18.7621 121.111 18.8118V22.8388C120.898 22.7749 120.603 22.718 120.227 22.6683C119.85 22.6186 119.506 22.5938 119.194 22.5938C118.526 22.5938 117.929 22.7393 117.404 23.0305C116.885 23.3146 116.473 23.7124 116.168 24.2237C115.87 24.7351 115.721 25.3246 115.721 25.9922V35.25H111.182ZM131.277 35.25H123.543V13.4318H131.341C133.536 13.4318 135.425 13.8686 137.009 14.7422C138.593 15.6087 139.811 16.8551 140.663 18.4815C141.522 20.108 141.952 22.054 141.952 24.3196C141.952 26.5923 141.522 28.5455 140.663 30.179C139.811 31.8125 138.585 33.0661 136.987 33.9396C135.396 34.8132 133.493 35.25 131.277 35.25ZM128.156 31.2976H131.085C132.449 31.2976 133.596 31.0561 134.526 30.5732C135.464 30.0831 136.167 29.3267 136.636 28.304C137.112 27.2741 137.35 25.946 137.35 24.3196C137.35 22.7074 137.112 21.3899 136.636 20.3672C136.167 19.3445 135.468 18.5916 134.537 18.1087C133.607 17.6257 132.46 17.3842 131.096 17.3842H128.156V31.2976ZM152.741 35.5696C151.058 35.5696 149.609 35.2287 148.395 34.5469C147.187 33.858 146.257 32.8849 145.603 31.6278C144.95 30.3636 144.623 28.8686 144.623 27.1428C144.623 25.4595 144.95 23.9822 145.603 22.7109C146.257 21.4396 147.176 20.4489 148.363 19.7386C149.556 19.0284 150.955 18.6733 152.56 18.6733C153.64 18.6733 154.645 18.8473 155.575 19.1953C156.512 19.5362 157.329 20.0511 158.025 20.7401C158.728 21.429 159.275 22.2955 159.666 23.3395C160.056 24.3764 160.252 25.5909 160.252 26.983V28.2294H146.434V25.4169H155.98C155.98 24.7635 155.838 24.1847 155.554 23.6804C155.27 23.1761 154.875 22.782 154.371 22.4979C153.874 22.2067 153.295 22.0611 152.635 22.0611C151.946 22.0611 151.335 22.2209 150.802 22.5405C150.277 22.853 149.865 23.2756 149.566 23.8082C149.268 24.3338 149.115 24.9197 149.108 25.5661V28.2401C149.108 29.0497 149.257 29.7493 149.556 30.3388C149.861 30.9283 150.291 31.3828 150.845 31.7024C151.399 32.022 152.056 32.1818 152.816 32.1818C153.32 32.1818 153.782 32.1108 154.201 31.9688C154.62 31.8267 154.978 31.6136 155.277 31.3295C155.575 31.0455 155.802 30.6974 155.958 30.2855L160.156 30.5625C159.943 31.571 159.506 32.4517 158.846 33.2045C158.192 33.9503 157.347 34.5327 156.31 34.9517C155.28 35.3636 154.091 35.5696 152.741 35.5696ZM176.828 23.5526L172.674 23.8082C172.603 23.4531 172.45 23.1335 172.216 22.8494C171.981 22.5582 171.672 22.3274 171.289 22.157C170.912 21.9794 170.461 21.8906 169.936 21.8906C169.233 21.8906 168.64 22.0398 168.157 22.3381C167.674 22.6293 167.432 23.0199 167.432 23.5099C167.432 23.9006 167.588 24.2308 167.901 24.5007C168.213 24.7706 168.75 24.9872 169.51 25.1506L172.471 25.7472C174.062 26.0739 175.248 26.5994 176.029 27.3239C176.811 28.0483 177.201 29 177.201 30.179C177.201 31.2514 176.885 32.1925 176.253 33.0021C175.628 33.8118 174.769 34.4439 173.675 34.8984C172.588 35.3459 171.335 35.5696 169.914 35.5696C167.748 35.5696 166.022 35.1186 164.737 34.2166C163.458 33.3075 162.709 32.0717 162.489 30.5092L166.953 30.2749C167.088 30.9354 167.414 31.4396 167.933 31.7876C168.451 32.1286 169.115 32.299 169.925 32.299C170.721 32.299 171.36 32.1463 171.843 31.8409C172.333 31.5284 172.581 31.1271 172.588 30.6371C172.581 30.2251 172.407 29.8878 172.066 29.625C171.725 29.3551 171.2 29.1491 170.49 29.0071L167.656 28.4425C166.058 28.1229 164.868 27.5689 164.087 26.7805C163.313 25.9922 162.926 24.9872 162.926 23.7656C162.926 22.7145 163.21 21.8089 163.778 21.049C164.353 20.2891 165.159 19.7031 166.196 19.2912C167.24 18.8793 168.462 18.6733 169.861 18.6733C171.928 18.6733 173.554 19.1101 174.74 19.9837C175.934 20.8572 176.63 22.0469 176.828 23.5526ZM180.059 35.25V18.8864H184.597V35.25H180.059ZM182.339 16.777C181.664 16.777 181.085 16.5533 180.602 16.1058C180.127 15.6513 179.889 15.108 179.889 14.4759C179.889 13.8509 180.127 13.3146 180.602 12.8672C181.085 12.4126 181.664 12.1854 182.339 12.1854C183.014 12.1854 183.589 12.4126 184.065 12.8672C184.548 13.3146 184.789 13.8509 184.789 14.4759C184.789 15.108 184.548 15.6513 184.065 16.1058C183.589 16.5533 183.014 16.777 182.339 16.777ZM195.605 41.7273C194.135 41.7273 192.874 41.5249 191.823 41.12C190.779 40.7223 189.948 40.179 189.33 39.4901C188.712 38.8011 188.311 38.027 188.126 37.1676L192.324 36.603C192.452 36.9297 192.654 37.2351 192.931 37.5192C193.208 37.8033 193.574 38.0305 194.028 38.201C194.49 38.3786 195.051 38.4673 195.712 38.4673C196.699 38.4673 197.512 38.2259 198.151 37.7429C198.798 37.267 199.121 36.468 199.121 35.3459V32.3523H198.929C198.73 32.8068 198.432 33.2365 198.034 33.6413C197.636 34.0462 197.125 34.3764 196.5 34.6321C195.875 34.8878 195.129 35.0156 194.263 35.0156C193.034 35.0156 191.915 34.7315 190.907 34.1634C189.906 33.5881 189.107 32.7109 188.51 31.532C187.92 30.3459 187.626 28.8473 187.626 27.0362C187.626 25.1825 187.928 23.6342 188.531 22.3913C189.135 21.1484 189.938 20.218 190.939 19.6001C191.947 18.9822 193.052 18.6733 194.252 18.6733C195.168 18.6733 195.935 18.8295 196.553 19.142C197.171 19.4474 197.668 19.831 198.045 20.2926C198.428 20.7472 198.723 21.1946 198.929 21.6349H199.099V18.8864H203.606V35.4098C203.606 36.8018 203.265 37.9666 202.583 38.9041C201.901 39.8416 200.957 40.5447 199.749 41.0135C198.549 41.4893 197.168 41.7273 195.605 41.7273ZM195.701 31.6065C196.433 31.6065 197.05 31.4254 197.555 31.0632C198.066 30.6939 198.457 30.1683 198.727 29.4865C199.004 28.7976 199.142 27.9737 199.142 27.0149C199.142 26.0561 199.007 25.2251 198.737 24.522C198.467 23.8118 198.077 23.2614 197.565 22.8707C197.054 22.4801 196.433 22.2848 195.701 22.2848C194.955 22.2848 194.327 22.4872 193.815 22.892C193.304 23.2898 192.917 23.8437 192.654 24.554C192.391 25.2642 192.26 26.0845 192.26 27.0149C192.26 27.9595 192.391 28.7763 192.654 29.4652C192.924 30.147 193.311 30.6761 193.815 31.0526C194.327 31.4219 194.955 31.6065 195.701 31.6065ZM211.756 25.7898V35.25H207.217V18.8864H211.543V21.7734H211.734C212.097 20.8217 212.704 20.0689 213.556 19.5149C214.408 18.9538 215.442 18.6733 216.656 18.6733C217.793 18.6733 218.783 18.9219 219.629 19.419C220.474 19.9162 221.131 20.6264 221.599 21.5497C222.068 22.4659 222.303 23.5597 222.303 24.831V35.25H217.764V25.6406C217.771 24.6392 217.516 23.858 216.997 23.2969C216.479 22.7287 215.765 22.4446 214.856 22.4446C214.245 22.4446 213.705 22.576 213.237 22.8388C212.775 23.1016 212.413 23.4851 212.15 23.9893C211.894 24.4865 211.763 25.0866 211.756 25.7898Z" fill="white"/>
<g clip-path="url(#clip0_610_108)">
<path d="M1.07812 0.398193L19.1886 15.7673V46.5136H28.9204C32.8295 46.57 36.6037 45.0251 39.4303 42.2118C42.257 39.3984 43.9102 35.5414 44.034 31.471C44.1035 27.6203 42.7769 23.884 40.3187 21.0072C38.9451 19.4804 37.2883 18.2598 35.4487 17.4193C33.609 16.5789 31.6247 16.1361 29.616 16.1177L46.0523 0.398193H35.6554L23.5843 10.5275L12.1783 0.398193H1.07812Z" fill="white"/>
<path d="M26 24.5252V37.6305C26.8586 38.1753 27.8177 38.4849 28.8007 38.5346C29.7837 38.5843 30.7633 38.3728 31.6613 37.9169C32.6096 37.3756 33.4159 36.5617 33.9996 35.5565C34.5832 34.5513 34.9238 33.3902 34.9873 32.1891C35.072 30.5899 34.7321 28.9987 34.0113 27.6204C33.2906 26.2422 32.2221 25.1402 30.9435 24.4565C29.3474 23.7694 27.5807 23.7939 26 24.5252Z" fill="#1A171C"/>
</g>
<defs>
<clipPath id="clip0_610_108">
<rect width="47" height="46.9197" fill="white"/>
</clipPath>
</defs>
</svg>
