<svg width="241" height="16" viewBox="0 0 241 16" fill="none" xmlns="http://www.w3.org/2000/svg">
<path d="M5.22882 11.9367C7.11571 11.9367 9.09245 11.8983 10.9793 11.86C11.788 11.86 12.5068 11.8217 13.3155 11.8217C16.7299 11.745 20.1442 11.6683 23.5586 11.5916C27.6918 11.5149 31.7351 11.3999 35.8683 11.3232C41.7087 11.1698 47.549 11.0548 53.3894 10.9014C54.7372 10.8631 56.085 10.8631 57.4327 10.8247C60.8471 10.748 64.2615 10.6714 67.6758 10.633C71.0902 10.5563 74.5046 10.4796 77.9189 10.4413C79.2667 10.403 80.6145 10.3646 81.9623 10.3646C87.3534 10.2879 92.8343 10.2112 98.2255 10.1346C101.55 10.0962 104.874 10.0579 108.289 9.98118C109.637 9.98118 110.895 9.94284 112.242 9.94284C117.454 9.9045 122.755 9.86615 127.966 9.82781C133.178 9.78947 138.299 9.75112 143.511 9.71278C144.859 9.71278 146.206 9.71278 147.644 9.71278C151.058 9.71278 154.383 9.71278 157.797 9.71278C163.098 9.71278 168.31 9.71278 173.611 9.67444C175.318 9.67444 177.025 9.67444 178.733 9.67444C182.327 9.67444 185.921 9.67444 189.515 9.67444C189.784 9.67444 190.144 9.67444 190.413 9.67444C182.327 9.71278 174.15 9.75112 166.064 9.82781C162.649 9.86615 159.325 9.86615 155.91 9.9045C154.473 9.9045 152.945 9.9045 151.508 9.94284C146.566 9.98118 141.714 10.0579 136.772 10.0962C131.111 10.1729 125.451 10.2112 119.79 10.2879C118.802 10.2879 117.903 10.3263 116.915 10.3263C113.86 10.403 110.895 10.4413 107.84 10.518C101.73 10.633 95.6197 10.748 89.5098 10.8631C88.6113 10.8631 87.7128 10.9014 86.8143 10.9398C83.8492 11.0165 80.7942 11.1315 77.8291 11.2082C72.438 11.3615 67.1367 11.5149 61.7456 11.6683C60.308 11.7066 58.7805 11.7833 57.3429 11.8217C53.9285 11.9367 50.5141 12.0517 47.0998 12.2051C42.7869 12.3585 38.3841 12.5118 34.0713 12.6652C28.0512 12.8953 21.9413 13.1253 15.9212 13.3554C14.4836 13.3937 13.0459 13.4704 11.5184 13.5088C8.91274 13.6238 6.30704 13.7388 3.70134 13.8539C3.43178 13.8539 3.16223 13.9305 3.16223 14.0839C3.16223 14.1989 3.43178 14.314 3.70134 14.314C4.68971 14.314 5.58823 14.3523 6.5766 14.3523C6.39689 14.544 6.30704 14.6591 6.30704 14.7741C6.30704 15.1959 7.11571 15.5793 8.19393 15.5793C15.6516 15.3876 23.0195 15.1575 30.4772 15.0041C36.9465 14.8891 43.4158 14.7357 49.8852 14.6207C56.9835 14.4673 64.1716 14.314 71.2699 14.1989C73.5162 14.1606 75.7625 14.1223 78.0088 14.0456C78.6378 14.0456 79.2667 14.0072 79.9855 14.0072C91.4866 13.8922 102.988 13.7388 114.489 13.6238C120.599 13.5471 126.798 13.4704 132.908 13.4321C135.155 13.3937 137.311 13.3937 139.557 13.3554C151.328 13.2787 163.098 13.202 174.869 13.1253C179.901 13.087 184.932 13.0486 189.964 13.0103C194.277 12.972 198.59 12.972 202.903 12.8953C206.497 12.8569 210.001 12.7802 213.595 12.7419C215.392 12.7036 217.189 12.7036 218.896 12.6652C222.94 12.5502 226.983 12.4352 231.026 12.3201C230.757 12.4735 230.757 12.7036 230.847 12.8569C230.937 13.0486 231.206 13.202 231.655 13.2787C232.015 13.3554 232.554 13.4321 232.913 13.3554C233.812 13.202 234.71 13.0486 235.519 12.8953C235.519 12.8953 235.519 12.8953 235.429 12.8953C235.519 12.8953 235.519 12.8569 235.609 12.8569C235.699 12.8569 235.789 12.8186 235.789 12.8186H235.699C236.148 12.7419 236.597 12.6652 237.136 12.5502C237.586 12.4735 238.125 12.3585 238.574 12.2818C239.113 12.1667 239.562 12.0517 240.101 11.9367C240.641 11.8217 241 11.5149 241 11.2465C241 11.0931 240.91 10.9781 240.73 10.8247C240.551 10.6714 240.101 10.4796 239.652 10.4413C239.203 10.403 238.754 10.3646 238.304 10.3646C238.215 10.3646 238.125 10.3646 238.035 10.3646C237.765 10.3646 237.406 10.3646 237.136 10.403C236.418 10.4413 235.789 10.4796 235.07 10.4796C234.531 10.4796 233.992 10.518 233.363 10.518C231.835 10.5563 230.397 10.5947 228.87 10.6714C228.511 10.6714 228.061 10.7097 227.702 10.7097C227.882 10.633 227.971 10.5563 227.971 10.4796C228.061 10.403 228.061 10.3263 228.061 10.2496C228.061 10.2112 228.061 10.1346 228.151 10.0962C228.151 10.0195 228.151 9.94284 228.061 9.9045C228.061 9.9045 228.151 9.9045 228.151 9.86615C228.421 9.78947 228.69 9.71278 228.87 9.55941C229.05 9.44438 229.14 9.291 229.14 9.13763C229.14 8.98426 229.05 8.86923 228.87 8.71586C228.78 8.67751 228.69 8.60083 228.6 8.56248C228.331 8.44745 228.061 8.40911 227.792 8.37077C227.253 8.29408 226.624 8.25574 225.995 8.25574C225.456 8.25574 225.006 8.25574 224.467 8.25574C223.748 8.25574 223.03 8.25574 222.311 8.25574C221.322 8.25574 220.244 8.25574 219.256 8.25574C216.56 8.25574 213.865 8.25574 211.169 8.25574C208.653 8.25574 206.048 8.25574 203.532 8.25574C201.196 8.25574 198.949 8.25574 196.613 8.25574C187.358 8.25574 178.194 8.29408 168.939 8.33242C162.02 8.37077 155.102 8.40911 148.183 8.40911C145.128 8.40911 141.983 8.44745 138.928 8.4858C132.01 8.56248 125.091 8.60083 118.173 8.67751C116.196 8.67751 114.219 8.71586 112.242 8.71586C111.074 8.71586 109.996 8.7542 108.828 8.7542C101.999 8.86923 95.1705 8.98426 88.3418 9.09929C86.2752 9.13763 84.2086 9.17598 82.0521 9.21432C80.8841 9.21432 79.716 9.25266 78.5479 9.291C71.7192 9.44438 64.9803 9.59775 58.1515 9.75112C54.6473 9.82781 51.1431 9.9045 47.6389 10.0195C41.6188 10.1729 35.5987 10.3263 29.6685 10.518C24.4571 10.6714 19.2457 10.7864 14.0343 10.9014C13.2256 10.9398 12.417 10.9398 11.5184 10.9781C10.1707 11.0165 8.82289 11.0165 7.47512 11.0548C6.30704 11.2082 5.04912 11.2082 3.88104 11.2082C3.79119 11.0548 3.43178 10.9398 3.16223 10.9781C2.35356 10.9781 1.63475 11.0165 0.826081 11.0548C0.466674 11.0931 0.107266 11.1698 0.0174146 11.3232C-0.0724372 11.5149 0.197118 11.7066 0.556526 11.745C0.915933 11.7833 1.27534 11.8217 1.63475 11.86C1.99415 11.8983 2.26371 11.8983 2.62312 11.8983C3.52164 11.9367 4.3303 11.9367 5.22882 11.9367ZM215.482 10.7097C216.56 10.7097 217.728 10.7097 218.807 10.7097C218.896 10.8247 219.076 10.9014 219.256 10.9781C218.807 10.9781 218.357 11.0165 217.998 11.0165C217.189 11.0165 216.381 11.0548 215.572 11.0548C211.978 11.0931 208.474 11.1698 204.88 11.2082C203.262 11.2465 201.645 11.2849 200.028 11.2849C197.512 11.2849 194.906 11.3232 192.39 11.3232C186.55 11.3615 180.799 11.3999 174.959 11.4382C163.638 11.5149 152.406 11.5916 141.085 11.6683C132.998 11.7066 124.911 11.8217 116.825 11.9367C104.695 12.0901 92.4749 12.2051 80.3449 12.3585C77.9189 12.3968 75.4929 12.4352 73.0669 12.5118C66.1484 12.6652 59.2298 12.7802 52.3112 12.9336C45.5723 13.087 38.7435 13.202 32.0047 13.3554C31.3757 13.3554 30.7467 13.3937 30.1178 13.3937C31.9148 13.317 33.8017 13.2787 35.5987 13.202C41.9782 13.0103 48.3577 12.7802 54.7372 12.5885C56.9835 12.5118 59.2298 12.4352 61.3862 12.3585C62.5543 12.3201 63.7224 12.2818 64.8006 12.2818C71.5395 12.1284 78.1885 11.9367 84.8375 11.7833C86.0955 11.745 87.4432 11.7066 88.7012 11.6683C90.588 11.6299 92.4749 11.5916 94.272 11.5916C101.101 11.4766 107.929 11.3615 114.758 11.2465C116.286 11.2082 117.813 11.2082 119.251 11.1698C119.61 11.1698 120.059 11.1698 120.419 11.1698C121.497 11.1698 122.575 11.1698 123.564 11.1315C130.392 11.0548 137.311 11.0165 144.14 10.9398C147.285 10.9014 150.429 10.8631 153.574 10.8631C163.727 10.8247 173.971 10.7864 184.124 10.748C194.726 10.748 205.149 10.7097 215.482 10.7097Z" fill="#20B46A"/>
<path d="M21.6085 1.01014C21.8802 1.01014 22.1004 0.913706 22.1004 0.794745C22.1004 0.675783 21.8802 0.579346 21.6085 0.579346C21.3369 0.579346 21.1167 0.675783 21.1167 0.794745C21.1167 0.913706 21.3369 1.01014 21.6085 1.01014Z" fill="#20B46A"/>
</svg>
