<svg width="340" height="15" viewBox="0 0 340 15" fill="none" xmlns="http://www.w3.org/2000/svg">
<path d="M7.37676 6.1032C10.0388 6.1032 12.8275 6.03962 15.4895 5.97605C16.6304 5.97605 17.6445 5.91247 18.7853 5.91247C23.6023 5.78532 28.4192 5.65817 33.2362 5.53102C39.0672 5.40387 44.7715 5.21315 50.6026 5.086C58.8421 4.8317 67.0816 4.64097 75.3211 4.38667C77.2226 4.3231 79.124 4.3231 81.0254 4.25952C85.8424 4.13237 90.6593 4.00522 95.4763 3.94165C100.293 3.8145 105.11 3.68735 109.927 3.62377C111.829 3.5602 113.73 3.49662 115.631 3.49662C123.237 3.36947 130.97 3.24232 138.575 3.11517C143.266 3.0516 147.956 2.98802 152.773 2.86087C154.674 2.86087 156.449 2.7973 158.35 2.7973C165.702 2.73372 173.181 2.67015 180.534 2.60657C187.886 2.543 195.111 2.47942 202.463 2.41585C204.365 2.41585 206.266 2.41585 208.294 2.41585C213.111 2.41585 217.802 2.41585 222.618 2.41585C230.097 2.41585 237.45 2.41585 244.929 2.35227C247.337 2.35227 249.746 2.35227 252.154 2.35227C257.224 2.35227 262.295 2.35227 267.365 2.35227C267.746 2.35227 268.253 2.35227 268.633 2.35227C257.224 2.41585 245.689 2.47942 234.281 2.60657C229.464 2.67015 224.773 2.67015 219.956 2.73372C217.928 2.73372 215.773 2.73372 213.745 2.7973C206.773 2.86087 199.928 2.98802 192.956 3.0516C184.97 3.17875 176.984 3.24232 168.998 3.36947C167.604 3.36947 166.336 3.43305 164.942 3.43305C160.632 3.5602 156.449 3.62377 152.139 3.75092C143.519 3.94165 134.899 4.13237 126.279 4.3231C125.012 4.3231 123.744 4.38667 122.477 4.45025C118.293 4.5774 113.984 4.76812 109.8 4.89527C102.195 5.14957 94.7157 5.40387 87.11 5.65817C85.0818 5.72175 82.9269 5.8489 80.8987 5.91247C76.0817 6.1032 71.2648 6.29392 66.4478 6.54822C60.3632 6.80252 54.1519 7.05682 48.0673 7.31112C39.5743 7.69257 30.9545 8.07402 22.4614 8.45547C20.4332 8.51904 18.405 8.64619 16.2501 8.70977C12.574 8.90049 8.8979 9.09122 5.22181 9.28194C4.84152 9.28194 4.46123 9.40909 4.46123 9.66339C4.46123 9.85412 4.84152 10.0448 5.22181 10.0448C6.61619 10.0448 7.88381 10.1084 9.27819 10.1084C9.02466 10.4263 8.8979 10.617 8.8979 10.8077C8.8979 11.5071 10.0388 12.1428 11.5599 12.1428C22.0811 11.8249 32.4756 11.4435 42.9969 11.1892C52.1237 10.9985 61.2506 10.7442 70.3774 10.5534C80.3916 10.2991 90.5326 10.0448 100.547 9.85412C103.716 9.79054 106.885 9.72697 110.054 9.59982C110.941 9.59982 111.829 9.53624 112.843 9.53624C129.068 9.34552 145.294 9.09122 161.519 8.90049C170.139 8.77334 178.886 8.64619 187.505 8.58262C190.674 8.51904 193.717 8.51904 196.886 8.45547C213.492 8.32832 230.097 8.20117 246.703 8.07402C253.802 8.01044 260.901 7.94687 267.999 7.88329C274.084 7.81972 280.168 7.81972 286.253 7.69257C291.323 7.62899 296.267 7.50184 301.338 7.43827C303.873 7.37469 306.408 7.37469 308.817 7.31112C314.521 7.12039 320.225 6.92967 325.929 6.73894C325.549 6.99324 325.549 7.37469 325.676 7.62899C325.803 7.94687 326.183 8.20117 326.817 8.32832C327.324 8.45547 328.084 8.58262 328.591 8.45547C329.859 8.20117 331.127 7.94687 332.268 7.69257C332.268 7.69257 332.268 7.69257 332.141 7.69257C332.268 7.69257 332.268 7.62899 332.394 7.62899C332.521 7.62899 332.648 7.56542 332.648 7.56542H332.521C333.155 7.43827 333.789 7.31112 334.549 7.12039C335.183 6.99324 335.944 6.80252 336.577 6.67537C337.338 6.48465 337.972 6.29392 338.732 6.1032C339.493 5.91247 340 5.40387 340 4.95885C340 4.70455 339.873 4.51382 339.62 4.25952C339.366 4.00522 338.732 3.68735 338.099 3.62377C337.465 3.5602 336.831 3.49662 336.197 3.49662C336.07 3.49662 335.944 3.49662 335.817 3.49662C335.437 3.49662 334.93 3.49662 334.549 3.5602C333.535 3.62377 332.648 3.68735 331.634 3.68735C330.873 3.68735 330.113 3.75092 329.225 3.75092C327.07 3.8145 325.042 3.87807 322.887 4.00522C322.38 4.00522 321.746 4.0688 321.239 4.0688C321.493 3.94165 321.62 3.8145 321.62 3.68735C321.746 3.5602 321.746 3.43305 321.746 3.3059C321.746 3.24232 321.746 3.11517 321.873 3.0516C321.873 2.92445 321.873 2.7973 321.746 2.73372C321.746 2.73372 321.873 2.73372 321.873 2.67015C322.253 2.543 322.634 2.41585 322.887 2.16155C323.141 1.97082 323.267 1.71652 323.267 1.46222C323.267 1.20792 323.141 1.0172 322.887 0.762899C322.76 0.699325 322.634 0.572175 322.507 0.5086C322.127 0.317875 321.746 0.2543 321.366 0.190725C320.605 0.063575 319.718 0 318.831 0C318.07 0 317.436 0 316.676 0C315.662 0 314.648 0 313.634 0C312.239 0 310.718 0 309.324 0C305.521 0 301.718 0 297.915 0C294.366 0 290.69 0 287.14 0C283.844 0 280.675 0 277.38 0C264.323 0 251.393 0.063575 238.337 0.12715C228.576 0.190725 218.816 0.2543 209.055 0.2543C204.745 0.2543 200.308 0.317875 195.998 0.38145C186.238 0.5086 176.477 0.572175 166.716 0.699324C163.928 0.699324 161.139 0.762899 158.35 0.762899C156.702 0.762899 155.181 0.826474 153.533 0.826474C143.899 1.0172 134.265 1.20792 124.632 1.39865C121.716 1.46222 118.8 1.5258 115.758 1.58937C114.11 1.58937 112.462 1.65295 110.814 1.71652C101.181 1.97082 91.6734 2.22512 82.0395 2.47942C77.0958 2.60657 72.1521 2.73372 67.2084 2.92445C58.7153 3.17875 50.2223 3.43305 41.856 3.75092C34.5038 4.00522 27.1516 4.19595 19.7994 4.38667C18.6586 4.45025 17.5177 4.45025 16.2501 4.51382C14.3487 4.5774 12.4472 4.5774 10.5458 4.64097C8.8979 4.89527 7.12324 4.89527 5.47533 4.89527C5.34857 4.64097 4.84152 4.45025 4.46123 4.51382C3.32038 4.51382 2.30628 4.5774 1.16543 4.64097C0.658378 4.70455 0.15133 4.8317 0.0245683 5.086C-0.102194 5.40387 0.278092 5.72175 0.78514 5.78532C1.29219 5.8489 1.79923 5.91247 2.30628 5.97605C2.81333 6.03962 3.19362 6.03962 3.70066 6.03962C4.96828 6.1032 6.10914 6.1032 7.37676 6.1032ZM304 4.0688C305.521 4.0688 307.169 4.0688 308.69 4.0688C308.817 4.25952 309.07 4.38667 309.324 4.51382C308.69 4.51382 308.056 4.5774 307.549 4.5774C306.408 4.5774 305.267 4.64097 304.126 4.64097C299.056 4.70455 294.112 4.8317 289.042 4.89527C286.76 4.95885 284.478 5.02242 282.197 5.02242C278.647 5.02242 274.971 5.086 271.422 5.086C263.182 5.14957 255.07 5.21315 246.83 5.27672C230.858 5.40387 215.013 5.53102 199.041 5.65817C187.632 5.72175 176.224 5.91247 164.815 6.1032C147.702 6.35749 130.463 6.54822 113.35 6.80252C109.927 6.86609 106.505 6.92967 103.082 7.05682C93.3213 7.31112 83.5607 7.50184 73.8 7.75614C64.2929 8.01044 54.6589 8.20117 45.1518 8.45547C44.2645 8.45547 43.3771 8.51904 42.4898 8.51904C45.025 8.39189 47.687 8.32832 50.2223 8.20117C59.2224 7.88329 68.2225 7.50184 77.2226 7.18397C80.3916 7.05682 83.5607 6.92967 86.6029 6.80252C88.2509 6.73894 89.8988 6.67537 91.4199 6.67537C100.927 6.42107 110.307 6.1032 119.688 5.8489C121.462 5.78532 123.364 5.72175 125.139 5.65817C127.801 5.5946 130.463 5.53102 132.998 5.53102C142.632 5.3403 152.266 5.14957 161.9 4.95885C164.054 4.89527 166.209 4.89527 168.238 4.8317C168.745 4.8317 169.378 4.8317 169.886 4.8317C171.407 4.8317 172.928 4.8317 174.322 4.76812C183.956 4.64097 193.717 4.5774 203.351 4.45025C207.787 4.38667 212.224 4.3231 216.661 4.3231C230.985 4.25952 245.436 4.19595 259.76 4.13237C274.718 4.13237 289.422 4.0688 304 4.0688Z" fill="#20B46A"/>
<path d="M31.8955 15C32.2788 15 32.5894 14.8402 32.5894 14.6429C32.5894 14.4457 32.2788 14.2858 31.8955 14.2858C31.5123 14.2858 31.2017 14.4457 31.2017 14.6429C31.2017 14.8402 31.5123 15 31.8955 15Z" fill="#20B46A"/>
</svg>
